<svg enable-background="new 0 0 925 1500" viewBox="0 0 925 1500" xmlns="http://www.w3.org/2000/svg" xmlns:xlink="http://www.w3.org/1999/xlink">
   <image height="1500" overflow="visible" transform="translate(-.5)" width="925" xlink:href="building.jpg"/>
   <g clip-rule="evenodd" fill="#fff" fill-rule="evenodd">
      <path d="m240.3 973s68.9-42.5 131-56 147-20 147-20l27 30 25-2 77 38 6 197v88s-40.8 35-45 42-23 48-23 48l-129-3-257 12-2-108 44-7z" opacity=".1"/>
      <path d="m242 971s38-25.6 90-42 102.1-22.2 132-27 56-4 56-4l8 10 8 8 15 9 17-1 33 17 45 19-6-113 6-3-7.7-224.3-62.3-78.7-45 11-19-3s-95.5 4.5-164 43-105 81-105 81z" opacity=".1"/>
      <path d="m245 302s41.4-76.2 99-120 161-72 161-72l32 79v29l5 16 37 80 30 32-7 10 17 19 4-3 11 33-7 8 7 10-3 11-6 6 12 15-4 5 5.3 159.7-62.3-78.7-29.1 7.4-18.3 3-16.6-2.4s-80.6 2.1-150 35.8c-70.2 34-119 88.2-119 88.2z" opacity=".1"/>
   </g>
</svg>