<svg enable-background="new 0 0 1080 1080" viewBox="0 0 1080 1080" xmlns="http://www.w3.org/2000/svg">
  <path d="m259.7 193.7h165.3v-31.5h185v-36.4h253.5s45.7 200.3 48.1 403.9c2.4 210.7-38.6 424.7-39.6 424.4-1.9-.6-330.6-37.6-330.6-37.6v-32.7h-74l-2.5 16-233.1 35.8s-63.5-164.1-63.5-325c.1-231.9 91.4-416.9 91.4-416.9z" fill="#b3b4b4"/>
  <path d="m430 400.7h80.3v13.9h-61.6v225.9h61.6v16.2h-80z" fill="#808080"/>
  <path d="m458 445.4h42.6v51.9h-42.6z" fill="#808080"/>
  <path d="m458 512.7h42.6v51.9h-42.6z" fill="#808080"/>
  <path d="m566.8 512.7h42.6v51.9h-42.6z" fill="#808080"/>
  <path d="m458 580h42.6v51.9h-42.6z" fill="#808080"/>
  <path d="m558.2 395.6h96.5v19.1h-96.5z" fill="#808080"/>
  <path d="m557.4 643.7h98.1v19.1h-98.1z" fill="#808080"/>
  <path d="m680.7 396.7h19.5v265.2h-19.5z" fill="#808080"/>
  <path d="m559.8 414.6h120v56.8h-120z" fill="none" stroke="#808080" stroke-miterlimit="10" stroke-width="3.1008"/>
  <path d="m559.8 586.9h120v56.8h-120z" fill="none" stroke="#808080" stroke-miterlimit="10" stroke-width="3.1008"/>
  <path d="m503.9 313.4h96.2v-36.4h9.3v-114.7h-184.5v31.5h-165.2s-37.4 75.9-64.3 191.3c55.7.3 195.1.9 195.1-.1 0-1.2 0-30.2 0-30.2h37v4.3h36.4v-8h40.1v-37.7z" fill="none" stroke="#808080" stroke-miterlimit="10" stroke-width="6.2017"/>
  <path d="m647.7 351.7v7h55v-16.1h88.7l7.9 7.9h100.4c-14.3-127.6-36.4-224.6-36.4-224.6h-253.4v36.4h-.6v189.4z" fill="none" stroke="#808080" stroke-miterlimit="10" stroke-width="6.2017"/>
  <path d="m899.8 350.5h-100.4l-7.9-7.9h-88.7v184.3h208.7c-.9-60.9-5.5-121.5-11.7-176.4z" fill="none" stroke="#808080" stroke-miterlimit="10" stroke-width="6.2017"/>
  <path d="m702.8 699.2h106.8v15.6h94.6c4.8-58 8-121.7 7.3-185 0-1 0-1.9 0-2.9h-208.7z" fill="none" stroke="#808080" stroke-miterlimit="10" stroke-width="6.2017"/>
  <path d="m872 954.1c.7.2 20.9-104.4 32.2-239.3h-94.6v-15.6h-148.8v4.6h-40v-4.6h-80.8l1.5 184.6v32.7s328.7 37 330.5 37.6z" fill="none" stroke="#808080" stroke-miterlimit="10" stroke-width="6.2017"/>
  <path d="m538.1 699.2h-74.4l-.9 4.6h-64.3v35.4h-218.6c18.3 109.5 52 196.5 52 196.5l233.1-35.8 2.5-16h74z" fill="none" stroke="#808080" stroke-miterlimit="10" stroke-width="6.2017"/>
  <path d="m275.4 566.4v-9.9s-61.3-.8-105.4-.9c-1.1 18-1.7 36.3-1.7 55 0 43.7 4.7 87.7 11.5 128.5h218.6v-35.4h31.6s.6-136.8 0-137.4c-.6-.5-154.6.1-154.6.1z" fill="none" stroke="#808080" stroke-miterlimit="10" stroke-width="6.2017"/>
  <path d="m390.4 384.9h-195.1c-11.8 50.4-21.5 108.3-25.3 170.7l105.4.9v9.9h154.6v-165.7h-39z" fill="none" stroke="#808080" stroke-miterlimit="10" stroke-width="6.2017"/>
  <text fill="#fff" font-family="'MyriadPro-Regular'" font-size="18.605" transform="translate(474.7057 476.8439)">E</text>
  <text fill="#fff" font-family="'MyriadPro-Regular'" font-size="18.605" transform="translate(474.7057 544.1506)">E</text>
  <text fill="#fff" font-family="'MyriadPro-Regular'" font-size="18.605" transform="translate(474.7057 611.4572)">E</text>
  <text fill="#fff" font-family="'MyriadPro-Regular'" font-size="18.605" transform="translate(583.4626 544.1506)">E</text>
  <g fill="none" stroke="#808080">
    <path d="m586.7 443h66.1" stroke-miterlimit="10" stroke-width="3.1008"/>
    <path d="m587.2 415.5v55.4" stroke-miterlimit="10" stroke-width="3.1008"/>
    <path d="m595.4 415.5v55.4" stroke-miterlimit="10" stroke-width="3.1008"/>
    <path d="m603.6 415.5v55.4" stroke-miterlimit="10" stroke-width="3.1008"/>
    <path d="m611.8 415.5v55.4" stroke-miterlimit="10" stroke-width="3.1008"/>
    <path d="m620 415.5v55.4" stroke-miterlimit="10" stroke-width="3.1008"/>
    <path d="m628.2 415.5v55.4" stroke-miterlimit="10" stroke-width="3.1008"/>
    <path d="m636.4 415.5v55.4" stroke-miterlimit="10" stroke-width="3.1008"/>
    <path d="m644.6 415.5v55.4" stroke-miterlimit="10" stroke-width="3.1008"/>
    <path d="m652.8 415.5v55.4" stroke-miterlimit="10" stroke-width="3.1008"/>
    <path d="m586.7 615.1h66.1" stroke-miterlimit="10" stroke-width="3.1008"/>
    <path d="m587.2 587.6v55.4" stroke-miterlimit="10" stroke-width="3.1008"/>
    <path d="m595.4 587.6v55.4" stroke-miterlimit="10" stroke-width="3.1008"/>
    <path d="m603.6 587.6v55.4" stroke-miterlimit="10" stroke-width="3.1008"/>
    <path d="m611.8 587.6v55.4" stroke-miterlimit="10" stroke-width="3.1008"/>
    <path d="m620 587.6v55.4" stroke-miterlimit="10" stroke-width="3.1008"/>
    <path d="m628.2 587.6v55.4" stroke-miterlimit="10" stroke-width="3.1008"/>
    <path d="m636.4 587.6v55.4" stroke-miterlimit="10" stroke-width="3.1008"/>
    <path d="m644.6 587.6v55.4" stroke-miterlimit="10" stroke-width="3.1008"/>
    <path d="m652.8 587.6v55.4" stroke-miterlimit="10" stroke-width="3.1008"/>
  </g>
</svg>
